<svg width="92" height="102" viewBox="0 0 92 102" fill="none" xmlns="http://www.w3.org/2000/svg">
<g clip-path="url(#clip0_374_413)">
<path d="M75.9129 90.8425H81.8719L83.4188 89.2956L84.9657 90.8425H91.482V84.4334L89.8815 82.8329L91.482 81.236V81.2181V72.0581V71.6115L91.1676 71.2971L85.8695 65.9991L85.7516 65.8848L85.0336 65.1667L84.8585 64.9881L83.601 63.7341L82.6114 62.7409H83.4581H90.0458H91.1176V61.6692V55.2815V54.8349L90.8032 54.5241L85.7123 49.4332L85.5623 49.2796L85.2479 48.9652L84.4941 48.2114H84.4905L84.5084 48.19H85.4122H90.8068H92L87.5129 5.99829L81.511 0H80.5464H72.9119H71.9473H70.7756H66.2706H65.306L65.2024 0.95744L65.1774 1.21466L63.9627 0H62.9374H59.3863H58.361L58.3145 1.02532L58.3038 1.28611L57.0177 0H56.0531H51.5482H50.3585L50.4835 1.18608L50.8336 4.47639L46.6681 0.314383L46.3573 0H45.9107H41.6594H41.2164L40.902 0.314383L36.1291 5.08729L31.3562 0.314383L31.0418 0H30.5952H26.2081H25.7651L25.4508 0.314383L23.6859 2.07564L21.6103 0H20.4206H15.9157H14.9511L14.8475 0.95744L14.8189 1.21466L13.6078 0H12.5825H9.0278H8.00606L7.95962 1.02532L7.94532 1.28611L6.66278 0H5.6982H1.19323H0L0.125039 1.18608L4.35135 40.9234L4.45496 41.8809L5.2302 42.6561H2.26499H1.18966V43.7279V83.4652V84.537L7.50233 90.8461H8.57409H22.9143H23.3608L23.6716 90.5317L25.9581 88.2488L28.5517 90.8425H29.6235H35.6968H36.7686V89.7707V86.8341L40.777 90.8425H41.8487H48.8652H49.9369V89.7707V85.3658L55.1064 90.5281L55.4172 90.8425H55.8638H64.2021H64.6487L64.9595 90.5281L70.2039 85.2908L70.279 85.2158L75.9129 90.8425Z" fill="black"/>
<path d="M13.3793 18.7058L12.5826 1.07178H9.02794L8.23126 18.7058H7.57391L5.69833 1.07178H1.19336L5.41967 40.8091H8.85645L10.4855 24.2361H10.8071H11.1214L12.7469 40.8091H16.1944L20.4208 1.07178H15.9158L14.0402 18.7058H13.3793Z" fill="white"/>
<path d="M63.7383 18.7058L62.9381 1.07178H59.387L58.5903 18.7058H57.9294L56.0538 1.07178H51.5488L55.7751 40.8091H59.2119L60.841 24.2361H61.1625H61.4805L63.1024 40.8091H66.5499L70.7762 1.07178H66.2713L64.3957 18.7058H63.7383Z" fill="white"/>
<path d="M30.6374 40.8091L35.3995 36.0469V5.87684L30.5945 1.07178H26.2074L21.4023 5.87684V36.0469L26.1645 40.8091H30.6374ZM25.8644 8.52052H30.9374V33.4961H25.8644V8.52052Z" fill="white"/>
<path d="M49.5505 43.728L44.2988 48.9689V78.2388L49.5397 83.4761H57.8816L63.1332 78.2388V48.9689L57.8923 43.728H49.5505ZM57.2243 75.4522H50.2221V51.7377H57.2243V75.4522Z" fill="white"/>
<path d="M45.9531 40.8091L50.7296 36.0469V5.87684L45.9102 1.07178H41.6625L36.8574 5.87684V36.0469L41.6196 40.8091H45.9531ZM41.3088 8.52052H46.2425V33.4961H41.3195L41.3088 8.52052Z" fill="white"/>
<path d="M80.5464 1.07178H72.9119L68.6855 40.8091H74.3552L74.791 33.2782H78.6672L79.1031 40.8091H84.7727L80.5464 1.07178ZM75.1876 26.6226L76.2093 8.98495H77.2811V9.14214L78.2957 26.6226H75.1876Z" fill="white"/>
<path d="M17.1238 63.1055L21.0786 59.0685V48.3116L16.5058 43.728H2.26562V83.4654H16.6058L21.7931 78.2638V67.2103L17.1131 63.4734L17.1238 63.1055ZM14.8731 76.5704H7.79591V66.9567H14.8731V76.5704ZM14.8731 59.6223H7.79591V50.7909H14.8731V59.6223Z" fill="white"/>
<path d="M23.3105 43.728V83.4618H29.3839V67.3854L34.9106 67.3497H35.5358V83.4439H42.5487V67.8427L38.1402 63.82L42.5487 59.9759V48.9689L37.3113 43.728H23.3105ZM36.4396 59.9438H29.3874V50.7909H36.4396V59.9438Z" fill="white"/>
<path d="M70.8796 60.4475V49.8049H77.1494V55.3602H83.7336V48.9689L78.4927 43.728H70.0472L64.8027 48.9689V60.5833L70.7939 66.5744H78.0176V77.4707H71.7656V71.8725H64.8027V78.2245L70.0472 83.4618H78.8642L84.098 78.228V65.7456L78.7999 60.4475H70.8796Z" fill="white"/>
<path d="M87.818 82.2861H82.873V87.2311H87.818V82.2861Z" fill="white"/>
<path d="M49.9732 101.99H47.908L45.7285 95.1045H47.5972L48.9442 100.225H48.9656L50.3162 95.1045H52.1848L49.9732 101.99Z" fill="white"/>
<path d="M52.8164 95.1045H54.6029V101.99H52.8164V95.1045Z" fill="white"/>
<path d="M55.9277 95.1045H61.4158V96.5337H57.7213V97.7413H61.0906V99.1276H57.7142V100.439H61.5051V101.982H55.9277V95.1045Z" fill="white"/>
<path d="M68.1102 96.648H66.0557V102.007H64.2693V96.648H62.2148V95.1045H68.1173L68.1102 96.648Z" fill="white"/>
<path d="M68.8145 95.1045H70.6581L73.0484 99.3491H73.0698V95.1045H74.7562V101.99H72.9126L70.5223 97.702H70.5045V101.99H68.8145V95.1045Z" fill="white"/>
<path d="M77.9569 95.1045H79.7791L82.3552 101.99H80.483L80.0614 100.746H77.6568L77.2245 101.979H75.3809L77.9569 95.1045ZM78.0748 99.4242H79.6362L78.8752 97.016H78.8537L78.0748 99.4242Z" fill="white"/>
<path d="M82.986 95.1045H85.6264L86.8126 99.6957H86.834L88.0203 95.1045H90.6606V101.99H88.9742V96.7623H88.9564L87.5272 101.99H86.1552L84.726 96.7623H84.6688V101.99H82.9824L82.986 95.1045Z" fill="white"/>
</g>
<defs>
<clipPath id="clip0_374_413">
<rect width="92" height="101.989" fill="white"/>
</clipPath>
</defs>
</svg>
